<svg width="169" height="36" viewBox="0 0 169 36" xmlns="http://www.w3.org/2000/svg" xmlns:xlink="http://www.w3.org/1999/xlink"><defs><path id="a" d="M0 32.666h166.867V0H0z"/></defs><g transform="translate(0 1)" fill="none" fill-rule="evenodd"><path d="M10.867 13.896c-.376-2.023-1.318-3.152-3.011-3.152-1.364 0-2.304.705-2.304 2.022 0 3.953 9.878 5.552 9.878 13.079 0 4.517-3.105 6.82-7.386 6.82C3.434 32.666.8 30.033 0 25.61l4.61-1.27c.33 2.116 1.082 3.999 3.481 3.999 1.364 0 2.352-.801 2.352-2.212 0-4.375-9.88-6.021-9.88-12.937 0-3.999 3.106-6.774 7.058-6.774 4.14 0 6.915 2.775 7.715 6.728l-4.469.752zM17.5 11.214V6.886h2.917V.064h5.269v6.822h3.528v4.328h-3.528v14.583c0 1.317.564 2.07 1.787 2.07h1.741v4.517c-.706.188-1.317.282-2.635.282-3.952 0-6.162-1.835-6.162-5.692v-15.76H17.5zM42.95 19.353c-4.798 2.728-5.974 4.469-5.974 6.68 0 1.647.846 2.306 2.446 2.306 1.46 0 2.635-1.083 3.528-2.353v-6.633zM32.082 14.32c.283-5.128 3.53-7.903 8.47-7.903 4.892 0 7.669 2.258 7.669 6.868v16.23c0 .8.186 1.835.328 2.681h-5.033c-.048-.705-.237-1.364-.283-1.976-1.977 1.6-3.622 2.447-6.163 2.447-3.575 0-5.363-2.447-5.363-5.692 0-5.552 3.668-8.61 11.243-11.478V13.99c0-2.117-.847-3.246-2.587-3.246-2.398 0-2.916 1.41-3.011 3.575h-5.27zM51.463 11.214V6.886h2.918V.064h5.269v6.822h3.529v4.328H59.65v14.583c0 1.317.565 2.07 1.787 2.07h1.742v4.517c-.707.188-1.318.282-2.635.282-3.952 0-6.163-1.835-6.163-5.692v-15.76h-2.918z" fill="#FFF"/><mask id="b" fill="#fff"><use xlink:href="#a"/></mask><path d="M66.659 32.195h5.27V6.885h-5.27v25.31zm0-27.396h5.27V0h-5.27v4.799zM86.653 13.896c-.377-2.023-1.318-3.152-3.012-3.152-1.364 0-2.304.705-2.304 2.022 0 3.953 9.878 5.552 9.878 13.079 0 4.517-3.105 6.82-7.386 6.82-4.61 0-7.244-2.633-8.044-7.055l4.61-1.27c.33 2.116 1.082 3.999 3.482 3.999 1.364 0 2.352-.801 2.352-2.212 0-4.375-9.88-6.021-9.88-12.937 0-3.999 3.105-6.774 7.058-6.774 4.14 0 6.915 2.775 7.715 6.728l-4.469.752zM93.285 11.214V6.886h2.918V.064h5.268v6.822h3.528v4.328h-3.528v14.583c0 1.317.564 2.07 1.787 2.07h1.74v4.517c-.705.188-1.316.282-2.634.282-3.951 0-6.161-1.835-6.161-5.692v-15.76h-2.918zM118.736 19.353c-4.799 2.728-5.975 4.469-5.975 6.68 0 1.647.847 2.306 2.446 2.306 1.459 0 2.636-1.083 3.529-2.353v-6.633zm-10.867-5.034c.282-5.128 3.528-7.903 8.467-7.903 4.893 0 7.67 2.258 7.67 6.868v16.23c0 .8.187 1.835.329 2.681H119.3c-.048-.705-.236-1.364-.283-1.976-1.976 1.6-3.623 2.447-6.164 2.447-3.575 0-5.362-2.447-5.362-5.692 0-5.552 3.669-8.61 11.244-11.478V13.99c0-2.117-.848-3.246-2.588-3.246-2.398 0-2.917 1.41-3.01 3.575h-5.27zM159.544 12.053c-2.603 1.351-4.538 4.15-4.538 4.15l-1.21 1.744c-.173.246-.349.495-.393.552-.042.055-.25.344-.368.515-.118.173-.618.895-1.113 1.606 0 0-2.96 4.274-7.157 6.453-4.358 2.266-10.062 2.12-10.53 2.104v2.347c0 .63.512 1.142 1.143 1.142h30.347c.632 0 1.142-.512 1.142-1.142V10.822c-.096.02-.195.033-.295.034 0 0-4.914.098-7.028 1.197M165.725.034h-30.347c-.631 0-1.142.511-1.142 1.142v20.678c.054-.007.11-.01.165-.01 0 0 4.913-.1 7.026-1.197 2.603-1.353 4.54-4.15 4.54-4.15a613.56 613.56 0 0 1 1.21-1.745c.173-.247.35-.495.392-.551.045-.056.249-.346.369-.516.118-.17.62-.893 1.112-1.605 0 0 2.958-4.274 7.157-6.455 4.548-2.364 10.564-2.101 10.564-2.101.033.001.064.006.096.01V1.176c0-.63-.51-1.142-1.142-1.142" fill="#FFF" mask="url(#b)"/></g></svg>